<mxfile host="Electron" modified="2024-05-21T19:04:15.762Z" agent="Mozilla/5.0 (Windows NT 10.0; Win64; x64) AppleWebKit/537.36 (KHTML, like Gecko) draw.io/24.4.0 Chrome/120.0.6099.109 Electron/28.1.0 Safari/537.36" etag="MEsPAnYRBt3uiD25uv2B" version="24.4.0" type="device">
  <diagram name="Page-1" id="pHUR5X7SGgNhUbn4H97u">
    <mxGraphModel dx="1548" dy="1022" grid="1" gridSize="10" guides="1" tooltips="1" connect="1" arrows="1" fold="1" page="1" pageScale="1" pageWidth="1700" pageHeight="1100" math="1" shadow="0">
      <root>
        <mxCell id="0" />
        <mxCell id="1" parent="0" />
        <mxCell id="m-5L3b84kr3z1-i0uarO-1" value="" style="endArrow=none;html=1;rounded=0;" parent="1" edge="1">
          <mxGeometry width="50" height="50" relative="1" as="geometry">
            <mxPoint x="520" y="560" as="sourcePoint" />
            <mxPoint x="520" y="200" as="targetPoint" />
          </mxGeometry>
        </mxCell>
        <mxCell id="m-5L3b84kr3z1-i0uarO-2" value="" style="endArrow=none;html=1;rounded=0;" parent="1" edge="1">
          <mxGeometry width="50" height="50" relative="1" as="geometry">
            <mxPoint x="730" y="400" as="sourcePoint" />
            <mxPoint x="330" y="400" as="targetPoint" />
          </mxGeometry>
        </mxCell>
        <mxCell id="m-5L3b84kr3z1-i0uarO-3" value="" style="curved=1;endArrow=classic;html=1;rounded=0;fillColor=#dae8fc;strokeColor=#6c8ebf;" parent="1" edge="1">
          <mxGeometry width="50" height="50" relative="1" as="geometry">
            <mxPoint x="520" y="400" as="sourcePoint" />
            <mxPoint x="720" y="340" as="targetPoint" />
            <Array as="points">
              <mxPoint x="520" y="350" />
            </Array>
          </mxGeometry>
        </mxCell>
        <mxCell id="m-5L3b84kr3z1-i0uarO-4" value="&lt;font color=&quot;#007fff&quot;&gt;`f(x)=root(3)(x)`&lt;/font&gt;" style="text;html=1;align=center;verticalAlign=middle;whiteSpace=wrap;rounded=0;fillColor=none;strokeColor=none;" parent="1" vertex="1">
          <mxGeometry x="580" y="350" width="160" height="30" as="geometry" />
        </mxCell>
        <mxCell id="m-5L3b84kr3z1-i0uarO-5" value="" style="curved=1;endArrow=classic;html=1;rounded=0;fillColor=#f8cecc;strokeColor=#b85450;" parent="1" edge="1">
          <mxGeometry width="50" height="50" relative="1" as="geometry">
            <mxPoint x="540" y="360" as="sourcePoint" />
            <mxPoint x="740" y="300" as="targetPoint" />
            <Array as="points">
              <mxPoint x="540" y="310" />
            </Array>
          </mxGeometry>
        </mxCell>
        <mxCell id="m-5L3b84kr3z1-i0uarO-6" value="&lt;font color=&quot;#ea6b66&quot;&gt;`f(x)=root(3)(x-2)+4`&lt;/font&gt;" style="text;html=1;align=center;verticalAlign=middle;whiteSpace=wrap;rounded=0;fillColor=none;strokeColor=none;" parent="1" vertex="1">
          <mxGeometry x="550" y="270" width="150" height="30" as="geometry" />
        </mxCell>
        <mxCell id="m-5L3b84kr3z1-i0uarO-7" value="" style="endArrow=classic;html=1;rounded=0;strokeColor=#EA6B66;strokeWidth=1;endFill=1;" parent="1" edge="1">
          <mxGeometry width="50" height="50" relative="1" as="geometry">
            <mxPoint x="540" y="400" as="sourcePoint" />
            <mxPoint x="540" y="350" as="targetPoint" />
          </mxGeometry>
        </mxCell>
        <mxCell id="m-5L3b84kr3z1-i0uarO-8" value="&lt;font color=&quot;#ea6b66&quot; style=&quot;font-size: 16px;&quot;&gt;a veritcal translation&lt;/font&gt;&lt;div style=&quot;font-size: 16px;&quot;&gt;&lt;font color=&quot;#ea6b66&quot; style=&quot;font-size: 16px;&quot;&gt;of 4 units up&lt;/font&gt;&lt;/div&gt;" style="strokeWidth=1;shadow=0;dashed=0;align=center;html=1;shape=mxgraph.mockup.text.callout;linkText=;textSize=17;textColor=#666666;callDir=NW;callStyle=line;fontSize=17;fontColor=#666666;align=left;verticalAlign=top;strokeColor=#666666;" parent="1" vertex="1">
          <mxGeometry x="350" y="270" width="190" height="80" as="geometry" />
        </mxCell>
        <mxCell id="m-5L3b84kr3z1-i0uarO-9" value="" style="endArrow=classic;html=1;rounded=0;strokeColor=#EA6B66;" parent="1" edge="1">
          <mxGeometry width="50" height="50" relative="1" as="geometry">
            <mxPoint x="520" y="400" as="sourcePoint" />
            <mxPoint x="540" y="400" as="targetPoint" />
          </mxGeometry>
        </mxCell>
        <mxCell id="m-5L3b84kr3z1-i0uarO-10" value="&lt;font color=&quot;#ea6b66&quot;&gt;&lt;span style=&quot;font-size: 16px;&quot;&gt;2 units horizontal&lt;/span&gt;&lt;/font&gt;&lt;div&gt;&lt;font color=&quot;#ea6b66&quot;&gt;&lt;span style=&quot;font-size: 16px;&quot;&gt;translation to right&lt;/span&gt;&lt;/font&gt;&lt;/div&gt;" style="strokeWidth=1;shadow=0;dashed=0;align=center;html=1;shape=mxgraph.mockup.text.callout;linkText=;textSize=17;textColor=#666666;callDir=NW;callStyle=line;fontSize=17;fontColor=#666666;align=left;verticalAlign=top;strokeColor=#666666;" parent="1" vertex="1">
          <mxGeometry x="270" y="350" width="270" height="50" as="geometry" />
        </mxCell>
        <mxCell id="m-5L3b84kr3z1-i0uarO-11" value="&lt;font color=&quot;#ea6b66&quot;&gt;`(2,4)`&lt;/font&gt;" style="text;html=1;align=center;verticalAlign=middle;whiteSpace=wrap;rounded=0;" parent="1" vertex="1">
          <mxGeometry x="530" y="330" width="60" height="30" as="geometry" />
        </mxCell>
        <mxCell id="m-5L3b84kr3z1-i0uarO-12" value="" style="curved=1;endArrow=classic;html=1;rounded=0;fillColor=#dae8fc;strokeColor=#6c8ebf;" parent="1" edge="1">
          <mxGeometry width="50" height="50" relative="1" as="geometry">
            <mxPoint x="520" y="400" as="sourcePoint" />
            <mxPoint x="320" y="460" as="targetPoint" />
            <Array as="points">
              <mxPoint x="520" y="450" />
            </Array>
          </mxGeometry>
        </mxCell>
        <mxCell id="m-5L3b84kr3z1-i0uarO-13" value="" style="curved=1;endArrow=classic;html=1;rounded=0;fillColor=#f8cecc;strokeColor=#b85450;" parent="1" edge="1">
          <mxGeometry width="50" height="50" relative="1" as="geometry">
            <mxPoint x="540" y="350" as="sourcePoint" />
            <mxPoint x="340" y="410" as="targetPoint" />
            <Array as="points">
              <mxPoint x="540" y="400" />
            </Array>
          </mxGeometry>
        </mxCell>
      </root>
    </mxGraphModel>
  </diagram>
</mxfile>
